<?xml version="1.0" standalone="no"?>
<!DOCTYPE svg PUBLIC "-//W3C//DTD SVG 1.1//EN" "http://www.w3.org/Graphics/SVG/1.1/DTD/svg11.dtd" >
<svg xmlns="http://www.w3.org/2000/svg" xmlns:xlink="http://www.w3.org/1999/xlink" version="1.1">
<metadata>
Created by FontForge 20200314 at Mon Jan  4 16:15:10 2016
 By Unknown
Copyright (c) 2015 by PYRS Fontlab Ltd. / Made with FontLab. All rights reserved.
</metadata>
<defs>
<font id="Rajasthan-Regular" horiz-adv-x="2048" >
  <font-face 
    font-family="Rajasthan"
    font-weight="400"
    font-stretch="normal"
    units-per-em="2048"
    panose-1="0 0 0 0 0 0 0 0 0 0"
    ascent="1653"
    descent="-395"
    x-height="1311"
    cap-height="1638"
    bbox="-154 -414 3174 1739"
    underline-thickness="102"
    underline-position="-202"
    unicode-range="U+000D-25FC"
  />
<missing-glyph horiz-adv-x="748" 
d="M68 0v1365h544v-1365h-544zM136 68h408v1229h-408v-1229z" />
    <glyph glyph-name=".notdef" horiz-adv-x="748" 
d="M68 0v1365h544v-1365h-544zM136 68h408v1229h-408v-1229z" />
    <glyph glyph-name="glyph1" horiz-adv-x="0" 
 />
    <glyph glyph-name="uni000D" unicode="&#xd;" horiz-adv-x="512" 
 />
    <glyph glyph-name="glyph3" horiz-adv-x="0" 
 />
    <glyph glyph-name="glyph3" horiz-adv-x="0" 
 />
    <glyph glyph-name="space" unicode=" " horiz-adv-x="512" 
 />
    <glyph glyph-name="A" unicode="A" horiz-adv-x="1757" 
d="M0 35q0 16 10 26.5t25 10.5q88 0 133 45t68 100l12 27l561 1304q18 43 34.5 66.5t39.5 23.5q29 0 43 -18t30 -53l367 -862l209 -484q31 -76 85 -111.5t116 -37.5q34 -4 34 -35q0 -16 -10 -26.5t-24 -10.5h-240q-63 0 -108.5 15.5t-77 38t-51 51t-29.5 57.5l-140 352
q-6 8 -12 8h-506q-4 0 -4 -2q-2 0 -4 -6l-125 -307q-27 -66 -68.5 -106t-85.5 -62.5t-85 -30.5t-66 -8h-96q-14 0 -24.5 10t-10.5 25zM616 659l410 -2l-201 527v-2z" />
    <glyph glyph-name="B" unicode="B" horiz-adv-x="1486" 
d="M0 1602q0 16 10 26t27 10h237l398 -2l-2 2h174h18h27q80 0 149.5 -28.5t121.5 -79.5t82 -120t30 -146q0 -117 -65 -208t-167 -136q68 -27 123.5 -71t95 -101.5t62 -126t22.5 -142.5q0 -98 -37.5 -186t-104 -152.5t-155 -102.5t-188.5 -38h-27h-174v2l-141 -2
q-90 0 -143.5 29.5t-83 67.5t-38.5 76t-11 56v13l-2 1159q0 10 -5.5 36.5t-26 55.5t-60.5 50.5t-107 21.5q-16 0 -27.5 10t-11.5 27zM504 1503q23 -20 31 -49t10 -61h2v-1151v-2q0 -43 29.5 -74t72.5 -31h4h6h9q80 0 149.5 30t121.5 80t83 118.5t31 146.5q0 70 -23.5 133.5
t-65.5 112.5t-98.5 81.5t-124.5 41.5h-4q-16 0 -26.5 10t-10.5 26t10.5 26.5t26.5 10.5l4 2q55 2 104.5 23.5t86.5 58.5t57.5 87.5t20.5 105.5q0 57 -21.5 107t-60.5 87t-90.5 58.5t-108.5 21.5l-43 -2q-4 2 -14 2h-168z" />
    <glyph glyph-name="C" unicode="C" horiz-adv-x="1624" 
d="M0 844q0 53 10 123.5t37 147.5t74 155t123 147q112 103 270 163q152 59 376 58h15h51q133 -14 240 -49q45 -14 88 -34.5t77 -46t54.5 -58.5t20.5 -74q2 -41 2 -77.5t-2 -67.5q-2 -27 -5.5 -52.5t-10.5 -45t-17 -30.5t-25 -9q-31 4 -47 25.5t-26.5 52t-18.5 67.5t-26 74
q-29 57 -89.5 101t-143.5 64q-69 17 -151 18q-16 0 -32 -1q-100 -4 -209 -41l-6 -2q-57 -20 -111.5 -60t-97.5 -107.5t-68.5 -167t-25.5 -236.5q0 -160 44 -293t128 -230l4 -4q53 -63 127 -108q63 -38 159 -66q63 -18 141 -18q40 0 83 4h6q109 10 176.5 42t105.5 66
q45 39 66 84q10 25 39 25q16 0 28.5 -12.5t12.5 -28.5l2 -4q0 -12 -1 -49t-19.5 -83t-59.5 -93t-121 -76l-2 -2q-35 -12 -75 -21.5t-91 -11.5l-102 -2h-30q-199 0 -367 49q-180 53 -320 178q-78 68 -128 143.5t-79.5 155.5t-41 161t-11.5 157z" />
    <glyph glyph-name="D" unicode="D" horiz-adv-x="1878" 
d="M0 1602q0 16 10 26t27 10h235h70h582q178 0 333.5 -64.5t271.5 -175t183.5 -259t67.5 -318.5q0 -160 -60.5 -301t-165 -250.5t-247 -178t-306.5 -83.5h-8q-12 0 -23.5 -1t-23.5 -1q-125 -6 -213 -6q-33 0 -61 1q-102 3 -162 9q-68 8 -98 17q-55 14 -89 44.5t-52.5 62.5
t-24.5 61.5t-8 44.5v12v1151q0 10 -6.5 36.5t-26 55.5t-59.5 50.5t-107 21.5q-16 0 -27.5 10t-11.5 25zM498 1507l4 -4q23 -20 30 -49t9 -59h2v-1143v-2q-1 -43 29 -74q28 -29 68 -29h5h4h6h9h79q143 0 274.5 52.5t233 143.5t162 215t60.5 267t-52.5 268.5t-142.5 219.5
t-211 148.5t-258 54.5q-25 0 -48.5 -2.5t-47.5 -6.5h-215z" />
    <glyph glyph-name="E" unicode="E" horiz-adv-x="1382" 
d="M0 1602q0 16 10 26t27 10h237h396h379h172h8q16 0 26.5 -10t10.5 -26v-64v-238q0 -16 -10.5 -26t-26.5 -10q-14 0 -24.5 11t-10.5 28q0 68 -22.5 107.5t-51 60t-55.5 25.5t-37 5l-94 2l-248 -2q-4 2 -14 2h-168q23 -20 31 -49t10 -61h2v-432h428h172h10q35 0 35 -35
l2 -64v-239q0 -16 -10 -26.5t-27 -10.5q-16 0 -26.5 11t-10.5 28q0 68 -21.5 107.5t-50 60t-56 26.5t-38.5 6h-407v-583v-2q0 -43 29.5 -74t72.5 -31h316l94 2q10 0 36.5 5t55.5 25.5t51.5 60.5t22.5 108q0 16 10.5 27.5t24.5 11.5q16 0 26 -10.5t10 -26.5v-238v-63
q0 -16 -10 -26.5t-26 -10.5h-9h-172h-16h-27h-379v2l-141 -2q-90 0 -143.5 29.5t-83 67.5t-38.5 76t-11 56v13l-2 1159q0 10 -5.5 36.5t-26 55.5t-60.5 50.5t-107 21.5q-16 0 -27.5 10t-11.5 27z" />
    <glyph glyph-name="F" unicode="F" horiz-adv-x="1372" 
d="M0 1602q0 16 10 26t27 10h237h396h379h172h8q16 0 26.5 -10t10.5 -26v-64v-238q0 -16 -10.5 -26t-26.5 -10q-14 0 -24.5 11t-10.5 28q0 68 -22.5 107.5t-51 60t-55.5 25.5t-37 5l-94 2l-248 -2q-4 2 -14 2h-168q23 -23 31 -50.5t10 -59.5h2v-432h428h172h10q35 0 35 -35
l2 -64v-239q0 -16 -10 -26.5t-27 -10.5q-16 0 -26.5 11t-10.5 28q0 68 -21.5 107.5t-50 60t-56 26.5t-38.5 6h-407v-583v-19q0 -16 3 -41.5t11 -50.5t23.5 -42t40.5 -17q16 0 26.5 -10.5t10.5 -24.5q0 -16 -10.5 -26.5t-26.5 -10.5h-109q-90 0 -143.5 29.5t-83 67.5
t-38.5 76t-11 56v13l-2 1159q0 10 -5.5 36.5t-26 55.5t-60.5 50.5t-107 21.5q-16 0 -27.5 10t-11.5 27z" />
    <glyph glyph-name="G" unicode="G" horiz-adv-x="1658" 
d="M0 844q0 53 10 123.5t37 147.5t74 155t123 147q113 102 270 163q153 58 376 58h15h51q133 -14 240 -49q45 -14 88 -34.5t77 -46t54.5 -58.5t20.5 -74q2 -41 2 -77.5t-2 -67.5q-2 -27 -6.5 -52.5t-10.5 -45t-16 -30.5t-25 -9q-31 4 -47 25.5t-26.5 52t-18.5 67.5t-26 74
q-29 57 -89.5 101t-143.5 64q-69 18 -151 18q-16 0 -32 -1q-101 -4 -209 -41l-6 -2q-57 -20 -111.5 -60t-97.5 -107.5t-68.5 -167t-25.5 -236.5q0 -160 44 -293t128 -230l4 -4q53 -61 127 -106q63 -39 159 -66q66 -20 149 -20q36 0 75 4q55 4 83.5 25.5t39.5 44.5
q12 26 12 57l-2 340q0 10 -5 36.5t-25.5 54.5t-59.5 49.5t-107 21.5q-16 0 -26.5 10t-10.5 26q0 14 10.5 24.5t24.5 10.5h236q31 -2 65 -10q29 -8 64 -25.5t67 -48.5q18 -18 35 -41q12 -20 23.5 -48.5t11.5 -65.5v-256v-19q0 -12 -2 -51t-19.5 -88t-58.5 -97t-121 -79l-2 -2
q-35 -12 -75 -21.5t-91 -11.5l-102 -2h-30q-200 0 -367 49q-179 53 -320 178q-78 68 -128 143.5t-79.5 155.5t-41 161t-11.5 157z" />
    <glyph glyph-name="H" unicode="H" horiz-adv-x="2058" 
d="M0 1602q0 16 10 26t27 10h250q94 0 148 -31.5t82 -72.5t36 -80t8 -53v-457h840v451q0 12 -4 26q-4 12 -8.5 27.5t-14.5 32.5q-49 84 -176 84q-16 0 -26.5 10t-10.5 27q0 16 10.5 26t24.5 10h244q94 0 150.5 -30.5t86 -71.5t37.5 -80t8 -53v-1159q-2 -14 2 -29
q4 -25 23 -57q49 -84 176 -84q16 0 27.5 -10.5t11.5 -26.5t-10 -26.5t-27 -10.5h-250q-92 0 -147 31.5t-83 71.5t-36 79t-8 54v555h-840v-547q-2 -14 2 -29q4 -25 23 -57q49 -84 176 -84q16 0 27.5 -10.5t11.5 -26.5t-10.5 -26.5t-26.5 -10.5h-252q-96 2 -150.5 37t-82 77
t-33.5 78.5t-6 47.5v1157q0 10 -5.5 37.5t-26 56.5t-60 51.5t-109.5 22.5q-16 0 -27.5 10t-11.5 27z" />
    <glyph glyph-name="I" unicode="I" horiz-adv-x="1085" 
d="M0 37q0 16 10 26.5t27 10.5q76 0 117 25.5t60 57t23.5 58.5t4.5 29v790v318q0 100 36.5 158.5t83 86t87 34.5t51.5 7h268q16 0 26.5 -10t10.5 -26t-10.5 -26.5t-26.5 -10.5q-76 0 -117 -26t-60.5 -57.5t-23.5 -58t-4 -28.5v-791v-2v-315q0 -102 -37 -159.5t-83 -85.5
t-88 -35t-50 -7h-268q-16 0 -26.5 10t-10.5 27z" />
    <glyph glyph-name="J" unicode="J" horiz-adv-x="958" 
d="M-154 -369q0 16 14.5 28.5t41.5 25.5q20 10 41.5 27.5t50.5 43.5q55 55 83.5 119t42 147.5t15.5 190t4 248.5q2 84 2 203.5v247.5t-1 248t-1 204q0 96 35 151.5t79 83t83 33.5t49 6h248q18 0 30.5 -13t12.5 -30q0 -18 -12.5 -31.5t-30.5 -13.5q-66 0 -101.5 -22.5
t-53 -49t-20.5 -50t-3 -25.5v-725q0 -29 1 -58.5t1 -62.5l2 -6q0 -35 1 -74t1 -80q0 -78 -8.5 -172t-40.5 -184q-37 -98 -135.5 -199.5t-241.5 -185.5q-20 -10 -44 -22.5t-59 -28.5q-12 -6 -26.5 -9.5t-22.5 -3.5q-16 0 -26.5 11.5t-10.5 27.5z" />
    <glyph glyph-name="K" unicode="K" horiz-adv-x="1808" 
d="M0 1602q0 16 10 26t27 10h192h35h10q4 -2 11 -2q4 0 11 -1t17 -1q35 -6 75 -19t75 -41t58.5 -72t23.5 -109v-1149q-2 -12 2 -27q4 -27 22 -59q53 -84 176 -84q16 0 27.5 -10.5t11.5 -26.5q0 -14 -10 -24.5t-26 -10.5h-234q-90 0 -143.5 29.5t-82 67.5t-37.5 76t-11 56
l-2 13v1157q0 10 -5.5 36.5t-26 55.5t-60.5 50.5t-107 21.5q-16 0 -27.5 10t-11.5 27zM610 857q-1 3 -1 6q0 11 9 24l46 67l122 172l269 359q43 57 90 88t93 45t86 16t69 2h94q14 -2 23.5 -13t5.5 -28q-4 -14 -15.5 -23t-25.5 -5q-20 4 -37 4q-21 1 -40 -5
q-34 -10 -61.5 -29t-48 -46t-37.5 -51l-16 -25l-354 -506q6 0 14 -2q14 -2 45 -18q31 -18 72 -52t92 -94q37 -43 82 -97t93 -110.5t94 -110.5t84 -98t65.5 -74t36.5 -36q4 -2 7 -4t7 -6q14 -12 35.5 -31.5t49.5 -40t60.5 -40t69.5 -32.5h2q18 -6 18 -30q0 -12 -9 -21.5
t-21 -9.5h-2h-197q-4 -2 -8 -2h-23q-27 0 -70.5 6t-97 27.5t-112 62.5t-113.5 113q-68 88 -113 147.5t-73 96.5q-33 43 -51 69l-27 34t-67 80t-86 94t-89 79l-2 2q-18 10 -26 23q-7 10 -11 23z" />
    <glyph glyph-name="L" unicode="L" horiz-adv-x="1259" 
d="M0 1602q0 16 10 26t27 10h233h4q72 0 132 -24q25 -10 49 -27.5t43.5 -44t32 -63.5t14.5 -86v-4q0 -2 1 -3.5t1 -5.5h-2v-419v-136v-583v-2q0 -43 30.5 -74t73.5 -31h111l196 2q10 0 37 5t55.5 25.5t51 60.5t22.5 108q0 16 10.5 27.5t24.5 11.5q16 0 26.5 -10.5
t10.5 -26.5v-238v-63q0 -16 -10 -26.5t-27 -10.5h-8h-172h-16h-27h-277v2l-141 -2q-90 0 -143.5 29.5t-83 67.5t-38.5 76t-11 56v13l-2 1159q0 10 -5.5 36.5t-26 55.5t-60.5 50.5t-107 21.5q-16 0 -27.5 10t-11.5 27z" />
    <glyph glyph-name="M" unicode="M" horiz-adv-x="2332" 
d="M0 37q0 14 10 24.5t27 10.5q55 0 91 14t58.5 35.5t32.5 46.5t14 43l9 49l204 1315q6 31 21.5 47t32.5 16q23 0 38 -15t37 -56l566 -1137l567 1151q16 35 34.5 46t31.5 11q16 0 34.5 -19.5t24.5 -55.5l195 -1280q4 -12 5 -23.5t3 -21.5q4 -27 8 -35q12 -45 54 -86t138 -41
q16 0 27.5 -10.5t11.5 -26.5t-10 -26.5t-27 -10.5h-49h-49t-51 2q-20 2 -41 2h-33.5t-29.5 2q-76 2 -124.5 26.5t-76 56.5t-39.5 67t-14 57l-109 817l-451 -905q-37 -74 -54 -98.5t-42 -24.5t-45 28.5t-49 82.5q-223 412 -248 471q-6 14 -27.5 60t-51 107.5t-63.5 130
t-61 124.5l-100 -781q-2 -20 -14.5 -65t-53.5 -86q-74 -74 -206 -74h-2h-2q-29 -2 -65 -2h-48h-2q-16 0 -26.5 10t-10.5 27z" />
    <glyph glyph-name="N" unicode="N" horiz-adv-x="1931" 
d="M0 68q0 16 10 25t25 9q18 4 33 25q12 16 22 50t10 93v4v1311q0 35 14.5 44t26.5 9q27 0 56.5 -19.5t33.5 -23.5l1108 -1122v879v12q0 14 7.5 53t34 79t76.5 71.5t140 31.5h11q6 -2 12 -6q12 -8 12 -28q0 -14 -10 -23.5t-25 -9.5q-18 -4 -32 -27q-12 -18 -22.5 -54
t-10.5 -99v-1311l-2 -2q-12 -25 -27.5 -32t-27.5 -7t-25 4q-6 2 -10 6l-1149 1094v-823v-19.5t-6 -43t-19.5 -56.5t-38.5 -58q-67 -71 -189 -71h-3h-10q-6 0 -13 6q-12 8 -12 29z" />
    <glyph glyph-name="O" unicode="O" horiz-adv-x="1898" 
d="M0 819q0 147 54.5 294t166 263.5t282.5 189t404 72.5q205 0 369 -54t278.5 -155.5t176 -247t61.5 -325.5q0 -188 -66.5 -346t-186.5 -271.5t-286.5 -176t-367.5 -62.5q-227 0 -394 72.5t-277 189.5t-162 263.5t-52 293.5zM338 883q0 -166 46 -303.5t130 -235.5
t200.5 -153.5t258.5 -55.5q35 0 85 7.5t102 31t104.5 66.5t93.5 114.5t66.5 176t25.5 249.5q0 160 -45 294t-125 230.5t-191.5 149.5t-244.5 53q-72 0 -159 -21.5t-165 -87t-130 -189.5t-52 -326z" />
    <glyph glyph-name="P" unicode="P" horiz-adv-x="1423" 
d="M0 1602q0 16 10 26t27 10h237l398 -2l-2 2h174q98 0 184 -34.5t150.5 -95t102.5 -141.5t38 -173q0 -78 -26.5 -147.5t-72.5 -126t-109.5 -97.5t-139.5 -59q-27 -6 -64 -10q-31 -4 -73 -6q-14 -1 -28 -1q-30 0 -63 3h-2h-2q-14 0 -22 9t-8 21q0 20 14 27q6 6 10 6h4
q57 12 106.5 43t85.5 76t56.5 102.5t20.5 120.5q0 72 -26 135.5t-71 110.5t-105.5 74.5t-127.5 27.5h-6h-166q23 -20 31 -49t10 -61h2v-1151q-2 -12 2 -27q4 -25 22 -57q47 -84 174 -84q16 0 27.5 -10.5t11.5 -26.5t-10 -26.5t-26 -10.5h-232q-90 0 -143.5 29.5t-83 67.5
t-38.5 76t-11 56v13l-2 1159q0 10 -5.5 36.5t-26 55.5t-60.5 50.5t-107 21.5q-16 0 -27.5 10t-11.5 27z" />
    <glyph glyph-name="Q" unicode="Q" horiz-adv-x="2961" 
d="M0 817q0 147 54.5 292.5t165 262.5t280.5 188.5t401 71.5q203 0 367 -54t277.5 -155.5t175 -245t61.5 -323.5q0 -219 -88 -393t-246 -287l379 -186q170 -84 309 -133.5t250 -74t192.5 -31.5t137.5 -7q82 0 189.5 13.5t217.5 54.5h2q5 2 13 2q16 0 26 -10.5t10 -26.5
q0 -23 -20 -33h-2q-47 -25 -116.5 -51.5t-157 -50t-190.5 -39t-220 -15.5q-123 0 -230.5 16.5t-215 50.5t-221 87t-247.5 129l-335 188q-78 -27 -162 -41t-176 -14q-227 0 -393 72.5t-275 188.5t-161 261.5t-52 292.5zM336 881q0 -164 46 -301.5t130 -235.5t199.5 -152.5
t255.5 -54.5q35 0 85 7.5t102 30t104.5 65.5t93.5 114.5t66.5 175t25.5 248.5q0 160 -45 293t-125 228.5t-190.5 148.5t-243.5 53q-47 0 -102.5 -8t-112 -32.5t-108.5 -66.5t-92 -112t-64.5 -168t-24.5 -233z" />
    <glyph glyph-name="R" unicode="R" horiz-adv-x="1738" 
d="M0 1602q0 16 10 26t27 10h237l396 -2v2h174q98 0 184 -34.5t150.5 -95t102.5 -141.5t38 -173q0 -78 -26.5 -146.5t-72.5 -126t-111 -98.5t-140 -59l2 -2q29 -16 65.5 -47t83.5 -86q51 -61 110.5 -132t113 -133.5t94.5 -107.5t53 -55q4 -2 12 -11q29 -23 81 -62.5
t118 -68.5l2 -2q18 -8 18 -26q0 -12 -9 -20.5t-21 -8.5h-2h-181q-4 -2 -8 -2h-18q-25 0 -66 5t-90 25.5t-103.5 58.5t-103.5 104q-63 80 -105 135t-67.5 89t-37.5 49l-11 15l-19 25q-18 26 -47.5 60t-66.5 71t-76 61l-12 7l-2 2q-8 8 -8 22q0 25 26 29h2q23 6 50.5 18
t54.5 27q31 16 61 35q66 51 105 128.5t39 170.5q0 74 -26 140t-71 116.5t-106.5 80t-130.5 29.5h-168q23 -20 31 -49t10 -59v-1151q0 -12 4 -27q4 -12 8 -27.5t14 -31.5q49 -84 174 -84q16 0 27.5 -10.5t11.5 -26.5q0 -14 -10 -24.5t-26 -10.5h-234q-90 0 -143.5 29.5
t-82 67.5t-37.5 76t-11 56v13l-2 1157q0 10 -5.5 36.5t-26 55.5t-60.5 50.5t-107 21.5q-16 0 -27.5 10t-11.5 27z" />
    <glyph glyph-name="S" unicode="S" horiz-adv-x="1208" 
d="M6 1212q0 92 48 171t132 137q84 56 201 88q110 30 238 30h16h6h2h10q18 0 55.5 -2t82.5 -8t92 -18.5t84 -32.5l14 -9q14 -9 28.5 -34t26.5 -70q8 -30 7 -70q0 -21 -2 -46v-9h-3q-10 -34 -49 -34h-2q-18 0 -32.5 10t-20.5 26q-18 55 -59 88t-83 50.5t-76 23.5t-36 6
q-18 2 -32.5 2h-20.5h-6h-4q-61 0 -120 -13t-105 -38.5t-73.5 -65.5t-27.5 -91q0 -35 10 -66t38 -61.5t78 -63.5t130 -72l100 -49q227 -109 330.5 -229.5t103.5 -280.5q0 -125 -60 -219t-191 -176q-47 -29 -102.5 -45t-111 -25.5t-109.5 -12.5t-99 -3h-8h-9q-18 0 -55 1
t-81 7t-91 18.5t-84 34.5l-14 9q-13 10 -28 34q-14 25 -26 70q-9 33 -9 82q0 17 1 35v8h2q14 35 51 35q20 0 34 -10.5t20 -26.5q16 -47 51 -78t71.5 -49t70.5 -25.5t50 -9.5h5q31 -6 49 -6h18h19q74 0 134 17.5t103 51t67.5 80t24.5 101.5q0 31 -6 62.5t-30.5 66.5
t-71.5 72.5t-129 81.5l-144 73q-106 53 -181 105.5t-122 110t-68.5 121t-21.5 140.5z" />
    <glyph glyph-name="T" unicode="T" horiz-adv-x="1714" 
d="M0 1397v12q0 74 21.5 117t52 66.5t61.5 31.5t49 10h11h4h4h1026q66 0 103.5 10.5t56.5 24.5q23 14 26 35q0 14 10.5 24.5t26.5 10.5q25 0 35 -25l2 -12q0 -135 -84 -191q-35 -23 -66.5 -28.5t-48.5 -5.5h-8q-2 0 -2 2h-389v-1241q0 -10 6 -37t26.5 -54.5t60.5 -49
t108 -21.5q16 0 26 -10.5t10 -26.5t-10 -26.5t-24 -10.5h-213h-33q-133 2 -205 76q-27 27 -41 55.5t-20.5 52t-7.5 40t-1 18.5v1235l-315 -2q-66 0 -103.5 -10.5t-56 -23.5t-22.5 -25l-4 -11q0 -14 -10.5 -24.5t-24.5 -10.5q-29 0 -35 25h-2z" />
    <glyph glyph-name="U" unicode="U" horiz-adv-x="2136" 
d="M0 1602q0 16 10 26t27 10h39h4q43 0 89 -1t93 -1l43 -2q82 -2 132 -30.5t77 -67.5t36 -76t11 -55h2v-12q0 -45 -1 -128t-1 -245v-295q0 -117 11.5 -198t32 -138t50 -96t66.5 -68q70 -53 138.5 -67.5t129.5 -14.5q25 0 57.5 4.5t71.5 15.5t78 32.5t76 56.5q43 39 67.5 91
t37 115.5t15.5 137.5t3 160v264v150.5v105.5t-1 70.5t-1 46.5v12h2q2 16 11 54t35.5 76t76 68.5t131.5 32.5l30 2h148q16 0 26.5 -10t10.5 -26t-10.5 -26.5t-26.5 -10.5q-66 0 -105 -19.5t-60.5 -46t-28.5 -54.5t-7 -42q-2 -20 -3 -48t-1 -72v-107.5v-155.5v-225
q0 -92 -7 -182.5t-28.5 -173.5t-63.5 -155.5t-112 -129.5q-61 -51 -122.5 -81t-122 -46.5t-117 -21.5t-105.5 -5q-59 0 -123.5 4t-130 19.5t-130 44t-120.5 77.5q-104 92 -152 228.5t-48 337.5v309v229v148q0 12 -4 26q-4 12 -8.5 26.5t-14.5 31.5q-47 84 -174 84
q-16 0 -27.5 10t-11.5 27z" />
    <glyph glyph-name="V" unicode="V" horiz-adv-x="1998" 
d="M0 1604q0 14 10 24t25 10h239q63 0 108.5 -15t77.5 -37.5t51 -52.5t30 -56l28 -72l172 -424l201 -526v2l209 522l180 453q27 66 69 105.5t86 62t85 30.5t65 8h97q14 0 24 -10t10 -24q0 -16 -10 -26.5t-24 -10.5q-88 0 -133.5 -45t-67.5 -101l-12 -26l-562 -1305
q-18 -43 -34.5 -66.5t-38.5 -23.5q-29 0 -43.5 18.5t-30.5 53.5l-367 862l-208 483q-31 76 -85.5 112t-115.5 38q-14 2 -24.5 11t-10.5 26z" />
    <glyph glyph-name="W" unicode="W" horiz-adv-x="2539" 
d="M0 1599q0 16 10 26.5t27 10.5h49q23 0 48.5 -1t51.5 -1q18 -2 39 -2q16 0 35 -1t31 -1q76 -2 124 -26.5t75.5 -56t39 -66.5t15.5 -58l108 -817l451 905q37 74 54.5 98.5t41.5 24.5q25 0 45.5 -28.5t48.5 -81.5q223 -412 248 -471q6 -14 27.5 -60.5t51.5 -108t62.5 -130
t61.5 -123.5l100 780q2 20 14.5 65.5t53.5 86.5q73 73 203 73h4h4q29 2 64.5 2h47.5h2q16 0 26.5 -10t10.5 -26q0 -14 -10 -24.5t-27 -10.5q-55 0 -91 -14.5t-58.5 -36t-33.5 -46t-13 -43.5l-8 -49l-207 -1315q-4 -31 -19.5 -47t-31.5 -16q-23 0 -39.5 15.5t-36.5 56.5
l-565 1136l-568 -1151q-16 -35 -34.5 -46t-30.5 -11q-16 0 -36 19.5t-24 56.5l-196 1280q-2 12 -3 23.5t-3 21.5q-4 27 -9 35q-6 23 -18 45t-35.5 40.5t-57.5 30t-83 11.5q-16 0 -26.5 10t-10.5 26z" />
    <glyph glyph-name="X" unicode="X" horiz-adv-x="1800" 
d="M0 37q0 16 10 26.5t27 10.5q72 0 110.5 31.5t73.5 78.5l23 33l381 565l-400 652l-4 14q-76 115 -186 119q-14 0 -24.5 10t-10.5 25q0 16 10 26t27 10h242q102 0 160.5 -37.5t86.5 -82.5l13 -13l272 -444l29 41l14 18l219 326l12 16q45 57 88.5 92t80 53.5t68.5 24.5t56 6
h99q14 0 24 -10t10 -26q0 -14 -10 -24.5t-24 -10.5q-74 0 -113 -32t-74 -81l-22 -33l-228 -336l-12 -18l-117 -170l414 -674l18 -33q76 -117 183 -118q16 0 25.5 -10.5t9.5 -24.5q0 -16 -9.5 -26.5t-25.5 -10.5h-242q-102 0 -161.5 37t-88.5 84l-12 12l-272 445l-25 40
l-287 -425l-12 -17q-45 -57 -88 -92t-80 -53.5t-68.5 -23.5t-56.5 -5l-96 -2q-16 0 -26.5 10t-10.5 27z" />
    <glyph glyph-name="Y" unicode="Y" horiz-adv-x="1835" 
d="M0 1604q0 14 10 24t25 10h241q102 0 161 -36.5t87 -81.5l13 -15l348 -565l293 524q43 57 84 92t79.5 53.5t70.5 23.5t56 5h97q16 0 26.5 -10t10.5 -24q0 -16 -10.5 -26.5t-26.5 -10.5q-72 0 -110 -32t-75 -79l-407 -704v-512q0 -10 6 -37t26.5 -55.5t61.5 -51t109 -22.5
q16 0 27 -10.5t11 -26.5t-10 -26.5t-26 -10.5h-217h-33q-135 4 -207 76q-27 27 -41 56.5t-20.5 54t-7.5 41t-1 18.5v506v-2l-428 686l-4 14q-72 113 -184 117q-14 0 -24.5 10t-10.5 27z" />
    <glyph glyph-name="Z" unicode="Z" horiz-adv-x="1765" 
d="M6 1397v12q0 74 21.5 117t52.5 66.5t62.5 31.5t50.5 10h-3h11h4h4h995q66 0 104 10.5t56 24.5q23 14 27 35q0 14 10 24.5t26 10.5q27 0 33 -25h2v-10v-15q0 -36 -8 -65q-10 -35 -27 -63l-909 -1401h719q66 0 103.5 10t56.5 25q23 14 26 34q0 14 10.5 24.5t26.5 10.5
q27 0 33 -24h2v-13v-12q0 -124 -82 -178q-35 -23 -67.5 -29t-47.5 -6q-4 0 -7 1t-5 1h-387h-774q-14 0 -24.5 10.5t-10.5 24.5q0 10 6 20l922 1420h-119h-319h-316q-66 0 -103.5 -11.5t-56 -24.5t-22.5 -25l-4 -11q0 -14 -9.5 -24.5t-25.5 -10.5q-29 0 -35 25h-2z" />
    <glyph glyph-name="bracketleft" unicode="[" 
 />
    <glyph glyph-name="backslash" unicode="\" horiz-adv-x="964" 
 />
    <glyph glyph-name="bracketright" unicode="]" horiz-adv-x="964" 
 />
    <glyph glyph-name="asciicircum" unicode="^" 
 />
    <glyph glyph-name="underscore" unicode="_" 
 />
    <glyph glyph-name="grave" unicode="`" 
 />
    <glyph glyph-name="a" unicode="a" horiz-adv-x="1404" 
d="M0 29q0 10 8 19t21 9q70 0 105.5 36t53.5 81l11 21l448 1044q14 35 27.5 53.5t32.5 18.5q23 0 34 -14.5t23 -43.5l295 -690l166 -387q27 -59 69.5 -89t91.5 -30q27 -4 27 -28q0 -29 -27 -29h-190q-51 0 -88 12.5t-62.5 30.5t-41 40.5t-23.5 45.5l-113 283q-4 6 -8 6h-403
h-6q0 -2 -2 -6l-101 -246q-23 -53 -55.5 -85t-67.5 -50.5t-67.5 -24.5t-53.5 -6h-75q-29 0 -29 29zM494 526h327l-162 422v-2z" />
    <glyph glyph-name="b" unicode="b" horiz-adv-x="1189" 
d="M0 1282q0 29 29 29h190h318h139h14h21q63 0 119.5 -23.5t97.5 -64.5t65.5 -95.5t24.5 -115.5q0 -94 -52.5 -167t-131.5 -110h-3q109 -43 176.5 -137t67.5 -215q0 -80 -30.5 -149.5t-83 -122t-124 -82t-151.5 -29.5h-20h-140h-114q-72 0 -115 23.5t-65.5 54.5t-30.5 61.5
t-8 44.5h-3v9v927q0 8 -4 29.5t-20 45.5t-48 41t-87 17q-31 0 -31 29zM403 1202q16 -16 23.5 -39.5t9.5 -48.5v-919v-5q0 -35 24.5 -58t59.5 -23h2h6h7q63 0 119.5 23.5t97.5 64.5t65.5 95t24.5 116q0 55 -18.5 105t-52.5 90t-80 66.5t-99 32.5h-2q-12 0 -20.5 9.5
t-8.5 21.5q0 29 29 29h2q45 2 85 20.5t68.5 48t46 68.5t17.5 84t-17.5 85t-48 70.5t-71.5 47t-88 16.5h-35h-10h-136z" />
    <glyph glyph-name="c" unicode="c" horiz-adv-x="1300" 
d="M0 676q0 43 8 98t29.5 116.5t59.5 124t100 118.5q90 84 215 132q120 46 296 46h15h41q109 -14 192 -41q37 -12 71 -27.5t61.5 -36t44 -46t16.5 -58.5q2 -33 2 -62.5t-2 -54.5q-4 -43 -14.5 -79t-32.5 -32q-25 4 -37 20.5t-20.5 41.5t-15.5 54.5t-21 58.5q-23 47 -71 81
q-49 34 -115 52q-57 15 -123 15h-23q-80 -3 -168 -34l-4 -2q-47 -16 -90 -48t-78 -86t-55.5 -133t-20.5 -189q0 -129 36 -236t101 -182l4 -4q43 -49 103 -86q51 -31 127 -53q50 -15 111 -15q33 0 69 4h4q86 10 140.5 35t84.5 51q37 31 54 68q6 20 30 20q33 0 33 -33v-4
q1 -7 1 -22v-18q-1 -30 -15.5 -66.5t-48 -73.5t-97.5 -61h-2q-27 -10 -59.5 -17.5t-73.5 -9.5l-82 -2h-29q-157 0 -287 39q-142 43 -257 143q-61 53 -101 114.5t-64 125t-33 128t-9 126.5z" />
    <glyph glyph-name="d" unicode="d" horiz-adv-x="1501" 
d="M0 1282q0 29 29 29h190h53h467q141 0 266 -51.5t217.5 -140.5t146.5 -208t54 -254q0 -127 -48 -240.5t-132 -200.5t-197.5 -142.5t-244.5 -67.5h-6h-19.5t-19.5 -2q-101 -4 -173 -4h-45q-83 2 -130 6q-53 6 -78 14q-45 12 -72 37t-42 50.5t-20.5 49t-5.5 36.5v8l-2 921
q0 8 -4 30t-20.5 44.5t-47 39.5t-85.5 17q-31 0 -31 29zM397 1206l4 -4q16 -16 23.5 -38.5t9.5 -47.5v-913v-4q0 -35 23.5 -58.5t58.5 -22.5h2h6h6h66q113 0 218.5 42.5t186 115t129 171t48.5 212.5q0 115 -42 215.5t-114 176t-168 118.5t-207 43q-39 0 -76 -6h-174z" />
    <glyph glyph-name="e" unicode="e" horiz-adv-x="1105" 
d="M0 1282q0 29 29 29h190h318h303h137h6q29 0 29 -29l2 -51v-191q0 -12 -9.5 -20t-21.5 -8q-10 0 -19.5 8t-9.5 20q0 55 -17 87t-40 49.5t-44.5 21.5t-29.5 4h-75h-199h-10h-136q16 -16 23.5 -39.5t9.5 -48.5v-344h344h138h8q12 0 20 -9t8 -22v-51v-190q0 -10 -8 -19.5
t-20 -9.5t-20.5 9t-8.5 22q0 55 -17.5 86.5t-41 48t-45 20.5t-29.5 4h-328v-464v-5q0 -35 24.5 -58t59.5 -23h252h76q8 0 29.5 4t44 21.5t40 49t17.5 86.5q0 12 9.5 20.5t19.5 8.5q12 0 21 -8t9 -21v-190l-2 -51q0 -29 -28 -29h-7h-137h-14h-21h-303h-114q-72 0 -115 23.5
t-65.5 54.5t-30.5 61.5t-8 44.5h-3v9v927q0 8 -4 29.5t-20 45.5t-48 41t-87 17q-31 0 -31 29z" />
    <glyph glyph-name="f" unicode="f" horiz-adv-x="1097" 
d="M0 1282q0 29 29 29h190h318h303h137h6q29 0 29 -29l2 -51v-191q0 -12 -9.5 -20t-21.5 -8q-10 0 -19.5 8t-9.5 20q0 55 -17 87t-40 49.5t-44.5 21.5t-29.5 4h-75h-199h-10h-136q16 -16 23.5 -39.5t9.5 -48.5v-344h344h138h8q12 0 20 -9t8 -22v-51v-190q0 -10 -8 -19.5
t-20 -9.5t-20.5 9t-8.5 22q0 55 -17.5 86.5t-41 48t-45 20.5t-29.5 4h-328v-464v-17q0 -12 2 -32.5t9.5 -40t19.5 -34t33 -14.5q29 0 28 -28q0 -29 -28 -29h-88q-72 0 -115 23.5t-65.5 54.5t-30.5 61.5t-8 44.5h-3v9v927q0 8 -4 29.5t-20 45.5t-48 41t-87 17q-31 0 -31 29z
" />
    <glyph glyph-name="g" unicode="g" horiz-adv-x="1327" 
d="M0 676q0 43 8 98t29.5 116.5t59.5 124t100 118.5q90 84 215 132q120 46 296 46h15h41q109 -14 192 -41q37 -12 71 -27.5t61.5 -36t44 -46t16.5 -58.5q2 -33 2 -62.5t-2 -54.5q-4 -43 -14.5 -79t-32.5 -32q-25 4 -37 20.5t-20.5 41.5t-15.5 54.5t-21 58.5q-23 47 -71 81.5
t-115 51.5q-56 15 -123 15h-23q-80 -3 -168 -34l-4 -2q-47 -16 -90 -48t-78 -86t-55.5 -133t-20.5 -189q0 -129 36 -236t101 -182l4 -4q41 -47 101 -84q51 -31 128 -53q53 -16 120 -16q29 0 61 3q45 4 66.5 20.5t31.5 34.5q11 23 9 48v270q0 8 -4.5 29.5t-20.5 44t-48 40
t-85 17.5q-31 0 -31 29q0 10 8 19t21 9h188l-2 -2q27 0 53 -8q23 -6 50.5 -19.5t54.5 -37.5q16 -12 28 -33q10 -16 19.5 -41t9.5 -53v-203v-16q0 -10 -1 -41t-15.5 -70t-48 -78t-97.5 -63h-2q-27 -10 -59.5 -17.5t-73.5 -9.5l-82 -2h-29q-157 0 -287 39q-142 43 -257 143
q-61 53 -101 114.5t-64 125t-33 128t-9 126.5z" />
    <glyph glyph-name="h" unicode="h" horiz-adv-x="1646" 
d="M0 1282q0 29 29 29h200q74 0 118 -25.5t66.5 -57.5t29 -63.5t6.5 -44.5v-364h671v360q0 12 -2 23q-4 20 -18 47q-40 65 -139 65h-3q-12 0 -21 9.5t-9 21.5t9 20.5t21 8.5h193q76 0 121 -24.5t67.5 -57.5t29.5 -63.5t7 -43.5v-927q2 -12 4 -23q2 -10 5.5 -21.5t11.5 -23.5
q39 -68 141 -68q14 0 22.5 -9t8.5 -21q0 -29 -29 -29h-201q-74 0 -116.5 25.5t-66 57.5t-30 62.5t-6.5 42.5v443h-671v-436q0 -12 2 -23q4 -20 18 -45q39 -68 141 -68q12 0 21.5 -9t9.5 -21t-9 -20.5t-22 -8.5h-200q-78 2 -121 28.5t-64.5 60.5t-26.5 64.5t-5 39.5v925
q0 8 -4.5 29.5t-21.5 45.5t-49 41t-87 17q-14 0 -22.5 9.5t-8.5 21.5z" />
    <glyph glyph-name="i" unicode="i" horiz-adv-x="868" 
d="M0 29q0 12 8 21t21 9q61 0 94 20.5t48 45.5t18.5 46.5t3.5 23.5l2 632v254q0 82 28.5 128t65.5 68.5t69.5 28t40.5 5.5h215q29 0 29 -29q0 -12 -8 -21.5t-21 -9.5q-59 0 -93 -20.5t-49 -45t-18 -46t-3 -23.5v-633v-2v-252q0 -82 -30 -128t-67 -68.5t-69.5 -27.5t-40.5 -5
h-215q-29 0 -29 29z" />
    <glyph glyph-name="j" unicode="j" horiz-adv-x="768" 
d="M-123 -295q0 14 11.5 23.5t33.5 19.5q33 16 74 57q43 43 66.5 95.5t33.5 119t12.5 151.5t4.5 198v164v197v197.5v164.5q0 76 27.5 119.5t62.5 66t66.5 28t39.5 5.5h197q14 0 24.5 -10.5t10.5 -24.5t-10.5 -24.5t-24.5 -10.5q-53 0 -81 -17.5t-42 -39t-16 -41t-2 -21.5
v-581v-46.5t2 -48.5v-6q0 -29 1 -59.5t1 -63.5q0 -61 -6.5 -137t-32.5 -147q-31 -78 -109 -160t-192 -147q-33 -18 -82 -41q-10 -6 -22.5 -8.5t-18.5 -2.5q-10 0 -19.5 9.5t-9.5 21.5z" />
    <glyph glyph-name="k" unicode="k" horiz-adv-x="1445" 
d="M0 1282q0 10 8 19.5t21 9.5h155h27h8q2 -2 8 -2q4 0 9.5 -1t13.5 -1q29 -4 61.5 -15.5t60 -33t46 -56.5t18.5 -88v-919q0 -12 2 -23q4 -20 19 -45q39 -68 139 -68q31 0 31 -28q0 -29 -29 -29h-186q-72 0 -115 23.5t-65.5 54.5t-30.5 60.5t-8 43.5h-3v11v925q0 8 -4 29.5
t-20 44.5t-48 40t-87 17q-14 0 -22.5 9.5t-8.5 21.5zM486 685q-1 3 0 6q0 9 8 20l36 53l99 137l215 287q35 45 72.5 70.5t74.5 36t69 12.5t54 2h76q27 -4 22 -33q-2 -10 -12 -17.5t-20 -5.5q-35 6 -62.5 -1t-49 -22.5t-38 -35.5t-31.5 -41l-12 -20l-282 -406q4 0 12 -2
q16 -4 37 -14q23 -14 55.5 -41t73.5 -76q43 -53 101 -122t113.5 -132.5t97.5 -110.5t52 -55l10 -10q25 -18 69 -54t104 -59h2q16 -6 16 -24q0 -25 -27 -25h-2h-155q-2 -2 -7 -2h-18q-20 0 -55 5t-78 22.5t-90 50.5t-92 90q-109 139 -149 194.5t-42 55.5l-21 26
q-20 27 -51.5 64t-69.5 76t-71 63l-4 2q-12 8 -20 17q-6 8 -10 19z" />
    <glyph glyph-name="l" unicode="l" horiz-adv-x="1007" 
d="M0 1282q0 29 29 29h188h2h10q53 0 97 -19q41 -16 73.5 -58t36.5 -120v-4v-6v-336v-109v-464v-5q0 -35 24.5 -58t59.5 -23h88h158q8 0 29.5 4t44 20.5t40 48t17.5 86.5q0 31 29 31q12 0 21 -8t9 -21v-190h-2v-51q0 -29 -28 -29h-8h-138h-12h-20h-222h-114q-72 0 -115 23.5
t-65.5 54.5t-30.5 61.5t-8 44.5h-3v9v927q0 8 -4 29.5t-20 44.5t-48 40t-87 17q-14 0 -22.5 9.5t-8.5 21.5z" />
    <glyph glyph-name="m" unicode="m" horiz-adv-x="1865" 
d="M0 29q0 29 29 28q43 0 72.5 11.5t48 29t26.5 37t10 35.5l7 37l165 1053q4 27 16.5 39t24.5 12q18 0 31.5 -11.5t30.5 -46.5l452 -909l453 922q14 29 28.5 37t24.5 8q14 0 28.5 -15.5t18.5 -44.5l156 -1026q2 -10 3 -18t3 -17q2 -10 4 -17t2 -11q10 -35 44 -69t112 -34
q12 0 21.5 -8t9.5 -20t-9.5 -20.5t-19.5 -8.5h-41h-38.5t-41.5 2h-33h-27.5t-23.5 2q-59 2 -98 21.5t-61.5 45t-32 53.5t-11.5 46l-86 655l-362 -727q-29 -59 -42 -78.5t-34 -19.5q-20 0 -36.5 24.5t-39.5 65.5q-90 164 -138 259t-58 118q-4 10 -22.5 48t-42 87t-50.5 103.5
t-49 99.5l-80 -625q-2 -16 -11 -52t-42 -69q-59 -59 -166 -59h-2h-2q-23 -2 -51.5 -2h-38.5h-2q-29 0 -29 29z" />
    <glyph glyph-name="n" unicode="n" horiz-adv-x="1544" 
d="M0 55q0 27 29 27l8 3t17 16.5t17.5 40t8.5 73.5v4v1051q0 27 11 34t22 7q23 0 45 -15.5t26 -19.5l889 -897l-2 702v9q0 12 6 43.5t26.5 63.5t61.5 57.5t113 25.5h8q4 0 8 -4t7.5 -8t3.5 -15q0 -29 -27 -28q-16 -4 -27 -21q-10 -14 -18 -42.5t-8 -80.5v-1048v-2
q-10 -18 -22.5 -24.5t-22.5 -6.5q-12 0 -21 4q-6 2 -8 4l-918 877v-660q0 -2 -1 -16t-5 -34.5t-15 -45.5t-32 -45q-51 -57 -151 -57h-11q-6 0 -10 4q-8 8 -8 24z" />
    <glyph glyph-name="o" unicode="o" horiz-adv-x="1517" 
d="M0 655q0 119 43 236t132 210t226.5 151.5t323.5 58.5q164 0 295 -43t223 -125t141.5 -198t49.5 -261q0 -152 -53.5 -277.5t-149.5 -216t-229 -140.5t-293 -50q-182 0 -316.5 58.5t-221.5 151.5t-129 210t-42 235zM270 707q0 -133 37 -243t104.5 -189.5t161 -124
t205.5 -44.5q43 0 108.5 15.5t126 69t104.5 156t44 278.5q0 129 -35.5 235.5t-100 183t-155 119.5t-196.5 43q-55 0 -126 -17.5t-132.5 -69.5t-103.5 -151.5t-42 -260.5z" />
    <glyph glyph-name="p" unicode="p" horiz-adv-x="1138" 
d="M0 1282q0 29 29 29h190h318h139q78 0 147.5 -28t121.5 -77t82 -113.5t30 -138.5q0 -61 -21.5 -116.5t-58.5 -101.5t-88 -78.5t-113 -47.5q-23 -4 -51 -8q-25 -4 -57 -5h-14q-27 0 -60 3h-2q-27 0 -27 25q0 10 13 22l12 4q45 8 85 34t68.5 61.5t45 80.5t16.5 97
q0 57 -20.5 108t-56.5 89t-84 59.5t-103 21.5h-6h-132q16 -16 23.5 -39.5t9.5 -48.5v-919q0 -2 2 -22.5t19 -47.5q39 -68 141 -68q29 0 29 -28q0 -29 -29 -29h-186q-72 0 -115 23.5t-65.5 54.5t-30.5 61.5t-8 44.5h-3v9v927q0 8 -4 29.5t-20 45.5t-48 41t-87 17
q-31 0 -31 29z" />
    <glyph glyph-name="q" unicode="q" horiz-adv-x="2369" 
d="M0 653q0 119 43 236t132 210t224.5 150.5t321.5 57.5q162 0 293 -43t222 -125t140 -198t49 -259q0 -174 -70.5 -313.5t-197.5 -229.5l305 -147q135 -68 247 -108t200 -59.5t153.5 -25.5t110.5 -6q66 0 151.5 11.5t174.5 41.5l2 2q2 0 4 1t4 1q12 0 21.5 -9t9.5 -21
q0 -16 -17 -25l-2 -2q-39 -18 -94 -39.5t-125 -40t-153 -31t-175 -12.5q-98 0 -184 12.5t-172 40t-177 69.5t-198 104l-268 149q-123 -43 -270 -43q-182 0 -314.5 57.5t-219.5 150.5t-129 210t-42 233zM268 705q0 -131 37 -241t104.5 -188.5t161 -122.5t203.5 -44
q43 0 107.5 15t126 68.5t104.5 155t43 275.5q0 127 -36 233.5t-99.5 183t-152.5 118.5t-195 42q-57 0 -127 -16.5t-131.5 -68.5t-103.5 -150t-42 -260z" />
    <glyph glyph-name="r" unicode="r" horiz-adv-x="1392" 
d="M0 1282q0 29 29 29h190h318h137q80 0 148.5 -28t120.5 -77t82 -113.5t30 -138.5q0 -61 -21.5 -116.5t-58.5 -100.5t-88 -77.5t-113 -49.5h2q23 -12 53.5 -36.5t67.5 -69.5q39 -49 87 -105.5t91 -106.5t76 -87t43 -45q2 -2 4 -3t6 -5q23 -16 64 -48t94 -57q14 -6 14 -22
q0 -23 -22 -23h-2h-144q-2 -2 -6 -2h-16q-18 0 -51 4t-73 20.5t-83 46t-84 83.5q-100 129 -137 180t-39 51l-15 21q-14 20 -37.5 47.5t-53 56.5t-60.5 49l-2 2q-4 0 -8 4h-2q-6 8 -6 19q0 18 20 22h2q16 4 40 15.5t44 21.5q23 12 49 29q53 41 84 102.5t31 134.5
q0 59 -20.5 112.5t-57.5 93.5t-86 63.5t-104 23.5h-134q16 -16 23.5 -39.5t9.5 -48.5v-919q0 -12 2 -23q4 -20 19 -45q39 -68 139 -68q31 0 31 -28q0 -29 -29 -29h-186q-72 0 -115 23.5t-65.5 54.5t-30.5 60.5t-8 43.5h-3v11v925q0 8 -4 29.5t-20 45.5t-48 41t-87 17
q-31 0 -31 29z" />
    <glyph glyph-name="s" unicode="s" horiz-adv-x="966" 
d="M4 971q0 74 38 136t106.5 108.5t161.5 72.5q86 24 188 23h16h4h10q14 0 44 -1t66 -6.5t73 -15.5t67 -26l12 -8q11 -7 23 -28q13 -20 21 -56q6 -24 5 -57q0 -16 -1 -34v-8h-2q-6 -27 -41 -27t-41 29q-16 43 -49 69.5t-67 41t-60.5 19.5t-28.5 5q-16 2 -26.5 2h-16.5h-6h-2
q-49 0 -95.5 -11t-83 -32.5t-59 -52.5t-22.5 -72q0 -29 8 -53t29.5 -49t61.5 -51.5t105 -57.5l80 -38q184 -88 266 -183.5t82 -224.5q0 -100 -49 -175t-153 -140q-37 -23 -81 -37.5t-89 -21.5t-87 -9t-79 -2h-8h-5q-14 0 -43.5 1t-66.5 6t-74 15.5t-67 26.5l-12 7
q-11 7 -22 28q-10 20 -20 56q-7 25 -7 60q0 15 1 31v9h2q10 27 41 26q33 0 43 -28q12 -37 40 -61.5t57.5 -39t57 -20.5t40.5 -8h4q10 -2 20.5 -3.5t18.5 -1.5q8 -2 14 -2h14q57 0 106.5 14.5t84.5 41t54.5 64.5t19.5 81q0 25 -5.5 50.5t-25 53t-57 58.5t-103.5 63l-115 60
q-84 43 -144 85t-98 88t-55.5 97t-17.5 113z" />
    <glyph glyph-name="t" unicode="t" horiz-adv-x="1370" 
d="M0 1118v8q0 57 17.5 93t42 54.5t49 26t38.5 7.5h9h2h2h2h821q53 0 83 8t45 19.5t19 20.5l3 9q0 27 28 27q20 0 29 -19v-10v-6q0 -100 -66 -148q-29 -18 -54.5 -22t-37.5 -4h-8l-311 2v-994q0 -8 5 -29.5t21.5 -44t48 -40t84.5 -17.5q31 0 31 -28q0 -29 -29 -29h-169h-27
q-104 0 -164 59q-20 20 -31.5 44t-16.5 43.5t-6 33.5l-1 13v987h-252q-53 0 -82 -9.5t-45 -19.5q-18 -12 -23 -27q0 -29 -28 -28q-20 0 -27 20h-2z" />
    <glyph glyph-name="u" unicode="u" horiz-adv-x="1708" 
d="M0 1282q0 29 29 29h32h2q35 0 72 -1t74 -1h35q68 -2 107.5 -25.5t61 -54.5t29 -60.5t7.5 -44.5h2v-10q0 -37 -1 -103.5t-1 -195.5v-235q0 -92 9 -158t25.5 -112t40 -75.5t54.5 -54.5q53 -43 109 -54t104 -11q39 0 103 15t124 71q68 66 83 166t15 237v211v122t-1 85
t-1 56.5v35.5v10h2q0 14 7 44t29 61t61.5 54.5t105.5 25.5l24 2h119q29 0 29 -29t-29 -29q-53 0 -83.5 -16t-48 -37.5t-24 -43t-6.5 -34.5q0 -16 -1 -38.5t-1 -57.5v-86v-125v-180q0 -72 -5 -143.5t-23.5 -138t-52 -126t-89.5 -104.5q-98 -82 -195 -102.5t-177 -20.5
q-47 0 -99.5 4t-104.5 16.5t-103.5 35t-96.5 61.5q-84 72 -123 181.5t-39 268.5v248v104.5t3 79.5v69t-3 48q0 12 -2 23q-2 16 -16 47q-40 67 -138 67h-3q-31 0 -31 29z" />
    <glyph glyph-name="v" unicode="v" horiz-adv-x="1599" 
d="M0 1282q0 29 29 29h190q51 0 87 -12.5t61.5 -31t41 -42t23.5 -43.5l23 -58l137 -340l162 -422v3l166 419l145 361q20 53 54 86t69 50t67.5 23.5t53.5 6.5h77q27 0 27 -29q0 -10 -8 -19.5t-19 -9.5q-70 0 -106.5 -35.5t-54.5 -80.5l-8 -21l-451 -1044q-14 -35 -26.5 -53.5
t-30.5 -18.5q-25 0 -36 14.5t-24 42.5l-295 691l-166 387q-25 59 -67.5 88.5t-91.5 29.5q-29 4 -29 29z" />
    <glyph glyph-name="w" unicode="w" horiz-adv-x="2031" 
d="M0 1280q0 29 29 29h41q16 0 37.5 -1t42.5 -1h32q14 0 27.5 -1t23.5 -1q59 -2 98.5 -21.5t62 -45.5t31.5 -53.5t11 -45.5l86 -656l361 727q29 59 43 79t35 20q20 0 36.5 -24.5t38.5 -65.5q88 -164 137.5 -259.5t59.5 -117.5q4 -10 22.5 -48t42 -87.5t50 -103.5t49.5 -99
l80 624q2 16 11 52.5t42 68.5q59 59 166 60h4q23 2 50.5 2h37.5h4q10 0 19.5 -8.5t9.5 -20.5t-9.5 -20.5t-19.5 -8.5q-45 0 -73.5 -11t-47 -28.5t-27 -37t-10.5 -35.5l-6 -37l-166 -1053q-4 -27 -16 -39t-27 -12q-16 0 -29.5 11.5t-29.5 45.5l-453 910l-452 -922
q-14 -29 -28.5 -37t-25.5 -8q-14 0 -28.5 15.5t-18.5 43.5l-157 1026q-2 10 -2 18.5t-5 16.5q-2 10 -3 17.5t-3 11.5q-4 18 -14 35.5t-27.5 33t-45 24.5t-66.5 9q-31 0 -31 29z" />
    <glyph glyph-name="x" unicode="x" horiz-adv-x="1439" 
d="M0 29q0 29 29 28q59 0 88.5 26t58.5 64l19 27l305 453l-320 520l-4 12q-59 90 -147 94q-29 0 -29 29t29 29h192q84 0 131 -30t70 -67l8 -10l219 -356l23 35l10 12l176 262l10 12q37 45 71 74t63.5 43t55 19.5t44.5 5.5h78q29 0 28 -29q0 -29 -28 -29q-59 0 -89 -25.5
t-59 -64.5l-18 -26l-180 -269l-13 -14l-92 -137l330 -539l16 -24q59 -92 146 -97q29 0 28 -28q0 -29 -28 -29h-193q-84 0 -131 29.5t-70 66.5l-10 10l-217 357l-20 33l-230 -342l-10 -13q-37 -47 -70.5 -74.5t-63.5 -42t-55.5 -19.5t-44.5 -5h-77q-12 0 -20.5 9t-8.5 20z
" />
    <glyph glyph-name="y" unicode="y" horiz-adv-x="1468" 
d="M0 1282q0 29 29 29h192q84 0 130 -30t69 -67l10 -10l279 -452l233 419q33 47 66.5 75t64.5 42.5t56.5 18.5t44.5 4h77q29 0 29 -29t-29 -29q-59 0 -88.5 -25.5t-58.5 -64.5l-326 -561v-409q0 -8 5 -30t21.5 -45.5t48.5 -41t87 -17.5q14 0 22.5 -9t8.5 -21q0 -29 -29 -29
h-172h-27q-111 4 -165 61q-23 20 -34.5 44t-16.5 43.5t-6 33t-1 15.5v405v-4l-340 551l-4 10q-59 90 -147 94q-29 0 -29 29z" />
    <glyph glyph-name="z" unicode="z" horiz-adv-x="1411" 
d="M6 1118v8q0 57 16.5 93t41 54.5t49 26t41.5 7.5h6h4h4h795q53 0 83.5 8t45 19.5t17.5 20.5l3 9q0 27 29 27q20 0 28 -19v-10v-9q0 -60 -26 -104l-729 -1122h575q53 0 83 8t45.5 19.5t18.5 20.5l3 9q0 27 28 27q23 0 27 -18h2v-11v-6q0 -100 -66 -147q-29 -18 -54 -22.5
t-38 -4.5h-8l-311 2h-619q-29 0 -28 27q0 8 4 16l737 1137h-94l-254 -2h-252q-53 0 -84 -9.5t-45 -19.5q-18 -12 -21 -27q0 -12 -9 -20t-19 -8q-23 0 -29 20z" />
    <glyph glyph-name="uni00A0" unicode="&#xa0;" horiz-adv-x="512" 
 />
    <glyph glyph-name="uni2000" unicode="&#x2000;" horiz-adv-x="869" 
 />
    <glyph glyph-name="uni2001" unicode="&#x2001;" horiz-adv-x="1739" 
 />
    <glyph glyph-name="uni2002" unicode="&#x2002;" horiz-adv-x="869" 
 />
    <glyph glyph-name="uni2003" unicode="&#x2003;" horiz-adv-x="1739" 
 />
    <glyph glyph-name="uni2004" unicode="&#x2004;" horiz-adv-x="579" 
 />
    <glyph glyph-name="uni2005" unicode="&#x2005;" horiz-adv-x="434" 
 />
    <glyph glyph-name="uni2006" unicode="&#x2006;" horiz-adv-x="289" 
 />
    <glyph glyph-name="uni2007" unicode="&#x2007;" horiz-adv-x="289" 
 />
    <glyph glyph-name="uni2008" unicode="&#x2008;" horiz-adv-x="217" 
 />
    <glyph glyph-name="uni2009" unicode="&#x2009;" horiz-adv-x="347" 
 />
    <glyph glyph-name="uni200A" unicode="&#x200a;" horiz-adv-x="96" 
 />
    <glyph glyph-name="uni202F" unicode="&#x202f;" horiz-adv-x="347" 
 />
    <glyph glyph-name="uni205F" unicode="&#x205f;" horiz-adv-x="434" 
 />
    <glyph glyph-name="uni25FC" unicode="&#x25fc;" horiz-adv-x="1310" 
d="M0 0v1311h1311v-1311h-1311z" />
    </font>
</defs>
</svg>
